<?xml version="1.0" encoding="UTF-8"?>
<svg version="1.1" xmlns="http://www.w3.org/2000/svg" width="1200" height="1200" viewBox="360 230 520 700">
<path d="M0 0 C37.80915786 -0.7182201 77.06874886 7.30500811 105.19140625 34.0703125 C122.29568773 52.04240532 129.20363595 77.53632736 129.05419922 101.87060547 C128.40212408 126.26761479 119.87328667 149.63573606 103.75390625 168.1328125 C103.06683594 168.92816406 102.37976563 169.72351563 101.671875 170.54296875 C99.40473356 173.11186632 97.09427794 175.63050405 94.75390625 178.1328125 C93.98175781 178.95910156 93.20960938 179.78539062 92.4140625 180.63671875 C52.76682394 221.69763518 -10.97589351 238.22301153 -66.43041992 239.39759827 C-71.11934357 239.45855613 -75.80686719 239.46344428 -80.49609375 239.4453125 C-81.48121948 239.44348969 -82.46634521 239.44166687 -83.48132324 239.43978882 C-98.29599596 239.39373486 -112.64457636 238.81547826 -127.24609375 236.1328125 C-128.22739258 235.96652344 -129.20869141 235.80023438 -130.21972656 235.62890625 C-160.32564758 230.50207013 -188.94432802 220.8232 -215.59228516 205.92382812 C-217.24125975 204.98898458 -217.24125975 204.98898458 -219.24609375 205.1328125 C-239.1076835 252.24774855 -252.60180158 308.46807311 -233.24609375 358.1328125 C-229.0007084 368.33709656 -223.77081664 376.96035706 -216.24609375 385.1328125 C-215.70726562 385.76316406 -215.1684375 386.39351562 -214.61328125 387.04296875 C-200.92865546 402.1373173 -178.35391592 410.26922179 -158.4699707 411.27294922 C-108.68793004 412.86565756 -59.85198599 394.87276661 -22.24609375 362.1328125 C-21.39789062 361.44058594 -20.5496875 360.74835938 -19.67578125 360.03515625 C-8.71664526 350.80200039 -2.80509806 339.57120542 3.09375 326.80615234 C10.65597578 310.56909069 21.80142888 294.65992572 38.69140625 287.1953125 C44.30334424 285.39268999 50.50923338 284.84594224 56.05859375 287.046875 C62.87710605 291.03506144 67.26128901 296.60151286 69.75390625 304.1328125 C77.85715109 363.82671618 32.09571383 442.71569082 -0.24609375 490.1328125 C5.79990797 490.90193882 11.81347522 491.32443669 17.90031433 491.62591553 C48.56447093 493.14778665 79.48153772 496.10603874 109.31640625 503.6328125 C110.08452637 503.82222412 110.85264648 504.01163574 111.64404297 504.20678711 C117.49953155 505.77346203 122.18665781 507.87989287 125.75390625 513.0078125 C126.99497489 516.88615201 126.55598751 518.52864997 124.75390625 522.1328125 C118.85296953 526.06677031 110.76818663 524.48380037 104.0625 523.14453125 C102.1037719 522.71071676 100.14678082 522.2690007 98.19140625 521.8203125 C84.78439913 518.95855047 71.39794617 517.36081551 57.75390625 516.1328125 C56.69526367 516.03371582 55.63662109 515.93461914 54.54589844 515.83251953 C31.66843671 513.7460331 8.70932027 513.51633816 -14.24609375 513.1328125 C-14.68828247 514.0458313 -14.68828247 514.0458313 -15.1394043 514.97729492 C-27.12447309 538.3208141 -51.5791226 559.65207571 -71.93359375 575.4453125 C-72.84057007 576.15059082 -72.84057007 576.15059082 -73.76586914 576.87011719 C-75.00545533 577.83357475 -76.24560172 578.79631202 -77.48632812 579.75830078 C-79.07930933 581.00254109 -80.65591272 582.26767987 -82.23046875 583.53515625 C-135.51681027 625.89638807 -210.42744075 661.13059354 -279.95507812 654.88964844 C-284.81527191 654.29822727 -289.50321614 653.34075597 -294.24609375 652.1328125 C-295.30183594 651.86597656 -296.35757813 651.59914063 -297.4453125 651.32421875 C-311.62245545 647.15447082 -324.32842615 639.41443885 -331.68359375 626.3828125 C-336.43889191 617.31276151 -336.54532222 606.65865151 -334.5625 596.69921875 C-329.394187 580.20779678 -317.83535887 567.33386943 -304.24609375 557.1328125 C-303.32570313 556.3903125 -302.4053125 555.6478125 -301.45703125 554.8828125 C-284.12499915 541.54372957 -262.59383618 531.86778351 -242.24609375 524.1328125 C-241.33037598 523.78057617 -240.4146582 523.42833984 -239.47119141 523.06542969 C-195.17624186 506.16119485 -149.8617942 497.85708999 -102.76501465 494.32287598 C-100.11814712 494.12315837 -97.47166148 493.91883134 -94.82519531 493.71386719 C-90.10202191 493.34939555 -85.37812699 492.99591893 -80.65356445 492.64993286 C-78.83781244 492.51640411 -77.02221022 492.38081781 -75.20678711 492.2428894 C-62.19870847 491.26222081 -49.28975142 490.97723688 -36.24609375 491.1328125 C-35.95508789 490.21580566 -35.66408203 489.29879883 -35.36425781 488.35400391 C-34.50110905 485.86745702 -33.67224751 483.83865182 -32.35546875 481.59375 C-31.98292969 480.94591553 -31.61039063 480.29808105 -31.2265625 479.63061523 C-30.82050781 478.93009033 -30.41445313 478.22956543 -29.99609375 477.5078125 C0.55007967 424.48106859 0.55007967 424.48106859 13.75390625 366.1328125 C12.93792969 366.8134375 12.12195313 367.4940625 11.28125 368.1953125 C-26.50063365 399.29502063 -72.18918351 425.42351115 -120.24609375 436.1328125 C-121.01945068 436.308125 -121.79280762 436.4834375 -122.58959961 436.6640625 C-129.04943614 438.05037615 -135.47638901 438.74753151 -142.05859375 439.2578125 C-143.12029785 439.3412793 -144.18200195 439.42474609 -145.27587891 439.51074219 C-152.61801043 440.06227437 -159.88453572 440.55087629 -167.24609375 440.1328125 C-168.20563965 440.07915527 -168.20563965 440.07915527 -169.18457031 440.02441406 C-188.12086857 438.81833649 -205.78742677 433.53911557 -222.24609375 424.1328125 C-223.23867188 423.57851563 -224.23125 423.02421875 -225.25390625 422.453125 C-234.78633953 416.77711772 -242.47862084 408.97668679 -250.24609375 401.1328125 C-250.8803125 400.49601562 -251.51453125 399.85921875 -252.16796875 399.203125 C-282.72955551 366.68246216 -287.43317936 318.56632512 -286.31970215 276.20983887 C-285.22881496 245.42800546 -276.41296175 213.8956363 -263.59619141 186.01757812 C-261.38552489 181.16282578 -261.38552489 181.16282578 -262.24609375 176.1328125 C-263.39880485 174.51427018 -263.39880485 174.51427018 -264.87109375 173.0078125 C-286.39102044 148.77227602 -295.85812162 118.91896854 -294.42626953 86.92041016 C-292.94033971 63.93078048 -281.75615515 42.55391265 -267.24609375 25.1328125 C-266.46878906 24.17890625 -265.69148438 23.225 -264.890625 22.2421875 C-260.72116775 17.33356658 -256.69721715 12.74232199 -250.24609375 11.1328125 C-246.30859375 11.2578125 -246.30859375 11.2578125 -243.24609375 12.1328125 C-241.63101025 15.36297949 -241.73100613 18.63504563 -242.24609375 22.1328125 C-243.67015013 24.63658375 -244.95770646 26.56460494 -246.74609375 28.7578125 C-247.67172486 29.97403149 -248.59219334 31.19419461 -249.5078125 32.41796875 C-249.96978027 33.0330127 -250.43174805 33.64805664 -250.90771484 34.28173828 C-265.71334664 54.75899116 -271.75420426 79.92694421 -268.02734375 104.84375 C-265.0469877 122.24237107 -258.01172166 138.13749621 -247.24609375 152.1328125 C-244.40498319 148.80318519 -242.17898836 145.41243598 -240.05151367 141.61474609 C-227.95701629 120.02725646 -211.91068565 101.66580487 -194.55859375 84.1953125 C-194.07294952 83.70421997 -193.5873053 83.21312744 -193.08694458 82.70715332 C-186.81441513 76.38226553 -180.33818113 70.53325291 -173.24609375 65.1328125 C-172.22 64.34132813 -171.19390625 63.54984375 -170.13671875 62.734375 C-167.1815083 60.52233878 -164.21787533 58.3225463 -161.24609375 56.1328125 C-160.69937012 55.72772461 -160.15264648 55.32263672 -159.58935547 54.90527344 C-138.92949997 39.64454275 -116.20923208 27.3722081 -92.24609375 18.1328125 C-91.45944336 17.82891602 -90.67279297 17.52501953 -89.86230469 17.21191406 C-60.77633329 6.14672722 -30.95202017 1.26638831 0 0 Z M-46.26953125 30.46337891 C-48.1525787 31.10114028 -50.04294499 31.71716984 -51.93359375 32.33203125 C-80.59960616 42.27555431 -106.80213961 59.63526411 -129.03515625 80.10546875 C-130.98592286 81.8942459 -132.9758977 83.61124369 -134.99609375 85.3203125 C-139.06723197 88.86994128 -142.90688257 92.64883391 -146.74609375 96.4453125 C-147.70080566 97.38056763 -147.70080566 97.38056763 -148.67480469 98.3347168 C-149.56087402 99.21897339 -149.56087402 99.21897339 -150.46484375 100.12109375 C-151.00044922 100.65259033 -151.53605469 101.18408691 -152.08789062 101.73168945 C-153.4584697 103.08675681 -153.4584697 103.08675681 -153.24609375 105.1328125 C-153.90609375 105.1328125 -154.56609375 105.1328125 -155.24609375 105.1328125 C-156.62100674 106.64068411 -157.91973837 108.21821011 -159.18359375 109.8203125 C-162.11124764 113.4903858 -165.06479176 117.10063739 -168.14916992 120.64160156 C-181.40243366 135.92957881 -192.40787788 152.9118251 -202.74609375 170.2578125 C-203.18010498 170.98105713 -203.61411621 171.70430176 -204.0612793 172.44946289 C-204.46258057 173.13129639 -204.86388184 173.81312988 -205.27734375 174.515625 C-205.63376953 175.11777832 -205.99019531 175.71993164 -206.35742188 176.34033203 C-207.30363942 178.24888402 -207.80440061 180.05422288 -208.24609375 182.1328125 C-186.93379692 198.52688699 -159.40418867 207.27323833 -133.24609375 212.1328125 C-132.42915039 212.28524414 -131.61220703 212.43767578 -130.77050781 212.59472656 C-96.43752239 218.68754843 -60.8744158 215.51309042 -27.24609375 207.1328125 C-25.90853027 206.80240967 -25.90853027 206.80240967 -24.54394531 206.46533203 C-1.29599357 200.60010126 21.9502107 190.75727276 41.75390625 177.1328125 C42.63175781 176.52953125 43.50960937 175.92625 44.4140625 175.3046875 C49.63101318 171.6115368 54.61343304 167.68073619 59.50390625 163.5703125 C60.02259277 163.13557617 60.5412793 162.70083984 61.07568359 162.25292969 C79.29347406 146.71371559 94.54451818 125.31546323 96.97265625 100.93652344 C98.27871505 82.13743953 93.53364218 65.22885864 81.1953125 50.796875 C63.58499651 31.58049819 39.88035809 22.20379146 14.0546875 21.0078125 C-6.50422067 20.58663128 -26.83277143 23.87345431 -46.26953125 30.46337891 Z M-95.30859375 515.7578125 C-96.29556244 515.8451767 -97.28253113 515.93254089 -98.29940796 516.02255249 C-126.16806843 518.52359687 -153.54633612 522.49887155 -180.24609375 531.1328125 C-181.12072266 531.41237793 -181.99535156 531.69194336 -182.89648438 531.97998047 C-196.0197953 536.22794563 -208.66221104 541.50377435 -221.24609375 547.1328125 C-221.98424316 547.45862305 -222.72239258 547.78443359 -223.48291016 548.12011719 C-245.20078845 557.74480263 -266.96498332 569.51923268 -283.24609375 587.1328125 C-284.11234375 587.9165625 -284.97859375 588.7003125 -285.87109375 589.5078125 C-291.99978513 596.28162928 -296.07005586 603.85696976 -296.24609375 613.1328125 C-295.34152065 618.58561299 -293.29604756 623.30177511 -289.24609375 627.1328125 C-273.63078377 637.28276399 -252.15664089 633.79693671 -234.98046875 630.39453125 C-225.91891124 628.46566156 -217.06870991 625.94665884 -208.24609375 623.1328125 C-207.43108398 622.87661133 -206.61607422 622.62041016 -205.77636719 622.35644531 C-174.69913708 612.46089901 -144.7838705 596.99322077 -118.24609375 578.1328125 C-117.39724609 577.53259277 -116.54839844 576.93237305 -115.67382812 576.31396484 C-105.98260286 569.42508818 -96.87108557 562.32655473 -88.24609375 554.1328125 C-86.93951018 553.0009465 -85.62731713 551.87551098 -84.30859375 550.7578125 C-75.04259126 542.66904803 -66.81243758 533.82177568 -59.24609375 524.1328125 C-58.55 523.25753906 -57.85390625 522.38226562 -57.13671875 521.48046875 C-53.94459393 518.12953836 -53.94459393 518.12953836 -52.24609375 514.1328125 C-66.69495711 513.91662003 -80.91845429 514.45875253 -95.30859375 515.7578125 Z " fill="#B929CE" transform="translate(717.24609375,258.8671875)"/>
<path d="M0 0 C37.80915786 -0.7182201 77.06874886 7.30500811 105.19140625 34.0703125 C122.29568773 52.04240532 129.20363595 77.53632736 129.05419922 101.87060547 C128.40212408 126.26761479 119.87328667 149.63573606 103.75390625 168.1328125 C103.06683594 168.92816406 102.37976563 169.72351563 101.671875 170.54296875 C99.40473356 173.11186632 97.09427794 175.63050405 94.75390625 178.1328125 C93.98175781 178.95910156 93.20960938 179.78539062 92.4140625 180.63671875 C52.76682394 221.69763518 -10.97589351 238.22301153 -66.43041992 239.39759827 C-71.11934357 239.45855613 -75.80686719 239.46344428 -80.49609375 239.4453125 C-81.48121948 239.44348969 -82.46634521 239.44166687 -83.48132324 239.43978882 C-98.29599596 239.39373486 -112.64457636 238.81547826 -127.24609375 236.1328125 C-128.22739258 235.96652344 -129.20869141 235.80023438 -130.21972656 235.62890625 C-160.32564758 230.50207013 -188.94432802 220.8232 -215.59228516 205.92382812 C-217.24125975 204.98898458 -217.24125975 204.98898458 -219.24609375 205.1328125 C-239.1076835 252.24774855 -252.60180158 308.46807311 -233.24609375 358.1328125 C-229.0007084 368.33709656 -223.77081664 376.96035706 -216.24609375 385.1328125 C-215.70726562 385.76316406 -215.1684375 386.39351562 -214.61328125 387.04296875 C-200.92865546 402.1373173 -178.35391592 410.26922179 -158.4699707 411.27294922 C-108.68793004 412.86565756 -59.85198599 394.87276661 -22.24609375 362.1328125 C-21.39789062 361.44058594 -20.5496875 360.74835938 -19.67578125 360.03515625 C-8.71664526 350.80200039 -2.80509806 339.57120542 3.09375 326.80615234 C10.65597578 310.56909069 21.80142888 294.65992572 38.69140625 287.1953125 C44.30334424 285.39268999 50.50923338 284.84594224 56.05859375 287.046875 C62.87710605 291.03506144 67.26128901 296.60151286 69.75390625 304.1328125 C77.85715109 363.82671618 32.09571383 442.71569082 -0.24609375 490.1328125 C5.79990797 490.90193882 11.81347522 491.32443669 17.90031433 491.62591553 C48.56447093 493.14778665 79.48153772 496.10603874 109.31640625 503.6328125 C110.08452637 503.82222412 110.85264648 504.01163574 111.64404297 504.20678711 C117.49953155 505.77346203 122.18665781 507.87989287 125.75390625 513.0078125 C126.99497489 516.88615201 126.55598751 518.52864997 124.75390625 522.1328125 C118.85296953 526.06677031 110.76818663 524.48380037 104.0625 523.14453125 C102.1037719 522.71071676 100.14678082 522.2690007 98.19140625 521.8203125 C84.78439913 518.95855047 71.39794617 517.36081551 57.75390625 516.1328125 C56.69526367 516.03371582 55.63662109 515.93461914 54.54589844 515.83251953 C31.66843671 513.7460331 8.70932027 513.51633816 -14.24609375 513.1328125 C-14.68828247 514.0458313 -14.68828247 514.0458313 -15.1394043 514.97729492 C-27.12447309 538.3208141 -51.5791226 559.65207571 -71.93359375 575.4453125 C-72.84057007 576.15059082 -72.84057007 576.15059082 -73.76586914 576.87011719 C-75.00545533 577.83357475 -76.24560172 578.79631202 -77.48632812 579.75830078 C-79.07930933 581.00254109 -80.65591272 582.26767987 -82.23046875 583.53515625 C-135.51681027 625.89638807 -210.42744075 661.13059354 -279.95507812 654.88964844 C-284.81527191 654.29822727 -289.50321614 653.34075597 -294.24609375 652.1328125 C-295.30183594 651.86597656 -296.35757813 651.59914063 -297.4453125 651.32421875 C-311.62245545 647.15447082 -324.32842615 639.41443885 -331.68359375 626.3828125 C-336.43889191 617.31276151 -336.54532222 606.65865151 -334.5625 596.69921875 C-329.394187 580.20779678 -317.83535887 567.33386943 -304.24609375 557.1328125 C-303.32570313 556.3903125 -302.4053125 555.6478125 -301.45703125 554.8828125 C-284.12499915 541.54372957 -262.59383618 531.86778351 -242.24609375 524.1328125 C-241.33037598 523.78057617 -240.4146582 523.42833984 -239.47119141 523.06542969 C-195.17624186 506.16119485 -149.8617942 497.85708999 -102.76501465 494.32287598 C-100.11814712 494.12315837 -97.47166148 493.91883134 -94.82519531 493.71386719 C-90.10202191 493.34939555 -85.37812699 492.99591893 -80.65356445 492.64993286 C-78.83781244 492.51640411 -77.02221022 492.38081781 -75.20678711 492.2428894 C-62.19870847 491.26222081 -49.28975142 490.97723688 -36.24609375 491.1328125 C-35.95508789 490.21580566 -35.66408203 489.29879883 -35.36425781 488.35400391 C-34.50110905 485.86745702 -33.67224751 483.83865182 -32.35546875 481.59375 C-31.98292969 480.94591553 -31.61039063 480.29808105 -31.2265625 479.63061523 C-30.82050781 478.93009033 -30.41445313 478.22956543 -29.99609375 477.5078125 C0.55007967 424.48106859 0.55007967 424.48106859 13.75390625 366.1328125 C12.93792969 366.8134375 12.12195313 367.4940625 11.28125 368.1953125 C-26.50063365 399.29502063 -72.18918351 425.42351115 -120.24609375 436.1328125 C-121.01945068 436.308125 -121.79280762 436.4834375 -122.58959961 436.6640625 C-129.04943614 438.05037615 -135.47638901 438.74753151 -142.05859375 439.2578125 C-143.12029785 439.3412793 -144.18200195 439.42474609 -145.27587891 439.51074219 C-152.61801043 440.06227437 -159.88453572 440.55087629 -167.24609375 440.1328125 C-168.20563965 440.07915527 -168.20563965 440.07915527 -169.18457031 440.02441406 C-188.12086857 438.81833649 -205.78742677 433.53911557 -222.24609375 424.1328125 C-223.23867188 423.57851563 -224.23125 423.02421875 -225.25390625 422.453125 C-234.78633953 416.77711772 -242.47862084 408.97668679 -250.24609375 401.1328125 C-250.8803125 400.49601562 -251.51453125 399.85921875 -252.16796875 399.203125 C-282.72955551 366.68246216 -287.43317936 318.56632512 -286.31970215 276.20983887 C-285.22881496 245.42800546 -276.41296175 213.8956363 -263.59619141 186.01757812 C-261.38552489 181.16282578 -261.38552489 181.16282578 -262.24609375 176.1328125 C-263.39880485 174.51427018 -263.39880485 174.51427018 -264.87109375 173.0078125 C-286.39102044 148.77227602 -295.85812162 118.91896854 -294.42626953 86.92041016 C-292.94033971 63.93078048 -281.75615515 42.55391265 -267.24609375 25.1328125 C-266.46878906 24.17890625 -265.69148438 23.225 -264.890625 22.2421875 C-260.72116775 17.33356658 -256.69721715 12.74232199 -250.24609375 11.1328125 C-246.30859375 11.2578125 -246.30859375 11.2578125 -243.24609375 12.1328125 C-241.63101025 15.36297949 -241.73100613 18.63504563 -242.24609375 22.1328125 C-243.67015013 24.63658375 -244.95770646 26.56460494 -246.74609375 28.7578125 C-247.67172486 29.97403149 -248.59219334 31.19419461 -249.5078125 32.41796875 C-249.96978027 33.0330127 -250.43174805 33.64805664 -250.90771484 34.28173828 C-265.71334664 54.75899116 -271.75420426 79.92694421 -268.02734375 104.84375 C-265.0469877 122.24237107 -258.01172166 138.13749621 -247.24609375 152.1328125 C-244.40498319 148.80318519 -242.17898836 145.41243598 -240.05151367 141.61474609 C-227.95701629 120.02725646 -211.91068565 101.66580487 -194.55859375 84.1953125 C-194.07294952 83.70421997 -193.5873053 83.21312744 -193.08694458 82.70715332 C-186.81441513 76.38226553 -180.33818113 70.53325291 -173.24609375 65.1328125 C-172.22 64.34132813 -171.19390625 63.54984375 -170.13671875 62.734375 C-167.1815083 60.52233878 -164.21787533 58.3225463 -161.24609375 56.1328125 C-160.69937012 55.72772461 -160.15264648 55.32263672 -159.58935547 54.90527344 C-138.92949997 39.64454275 -116.20923208 27.3722081 -92.24609375 18.1328125 C-91.45944336 17.82891602 -90.67279297 17.52501953 -89.86230469 17.21191406 C-60.77633329 6.14672722 -30.95202017 1.26638831 0 0 Z M-136.53417969 49.04003906 C-138.29708455 50.16536168 -140.07137746 51.27093022 -141.84765625 52.375 C-164.11728485 66.32221585 -186.43955125 83.80350127 -203.24609375 104.1328125 C-204.15240697 105.16889487 -205.061539 106.20251469 -205.97265625 107.234375 C-219.79884394 122.96071787 -231.01821341 140.20083674 -240.93359375 158.6328125 C-241.27277832 159.26179443 -241.61196289 159.89077637 -241.96142578 160.53881836 C-243.70040402 163.66599751 -243.70040402 163.66599751 -244.24609375 167.1328125 C-259.12358839 152.61818358 -269.34128512 133.26482246 -274.24609375 113.1328125 C-274.4884375 112.20597656 -274.73078125 111.27914062 -274.98046875 110.32421875 C-278.44398554 94.20014395 -277.31855115 76.72005137 -272.24609375 61.1328125 C-271.95734375 60.10542969 -271.66859375 59.07804687 -271.37109375 58.01953125 C-267.66007529 45.51141098 -261.08695727 34.60496131 -252.93359375 24.5234375 C-250.95775215 22.21203135 -250.95775215 22.21203135 -251.24609375 19.1328125 C-270.82769711 37.43735477 -286.26450074 62.64536694 -287.51953125 90.01171875 C-288.01705589 109.60760204 -284.55303184 126.85402724 -275.24609375 144.1328125 C-274.93269043 144.73174316 -274.61928711 145.33067383 -274.29638672 145.94775391 C-269.39761011 155.27958713 -263.55179206 163.49550805 -256.30859375 171.19140625 C-254.62109375 173.0078125 -254.62109375 173.0078125 -252.24609375 176.1328125 C-252.58067164 179.54007956 -253.66800734 182.40818203 -255.06640625 185.51171875 C-255.4334668 186.33994141 -255.80052734 187.16816406 -256.17871094 188.02148438 C-256.57219727 188.90384766 -256.96568359 189.78621094 -257.37109375 190.6953125 C-278.53759739 239.31238949 -288.22547883 296.74814891 -271.24609375 348.1328125 C-270.91569092 349.14649902 -270.91569092 349.14649902 -270.57861328 350.18066406 C-265.3386987 365.94226623 -257.77278029 380.26463865 -247.24609375 393.1328125 C-246.44558594 394.14408203 -246.44558594 394.14408203 -245.62890625 395.17578125 C-228.52541318 416.11600385 -200.79149585 428.44642434 -174.3359375 431.46484375 C-152.19295891 433.60771265 -130.67406336 430.68692836 -109.24609375 425.1328125 C-108.19373535 424.86549316 -108.19373535 424.86549316 -107.12011719 424.59277344 C-98.82094304 422.46274933 -91.0687035 419.6022934 -83.24609375 416.1328125 C-81.93278961 415.57304905 -80.61895377 415.01453198 -79.3046875 414.45703125 C-52.12243361 402.80483688 -26.83438047 387.94126274 -3.24609375 370.1328125 C-2.28533936 369.40964844 -2.28533936 369.40964844 -1.30517578 368.671875 C6.237015 362.96149997 13.34597347 356.93371353 20.23046875 350.4453125 C22.33634763 348.51546684 24.45831981 346.8217995 26.75390625 345.1328125 C24.19647601 357.08829338 21.3541159 368.91947659 18.06640625 380.6953125 C17.84981354 381.47239563 17.63322083 382.24947876 17.4100647 383.05010986 C8.86030928 413.57055384 -3.07377084 442.62909151 -17.62109375 470.7578125 C-17.95166779 471.39712708 -18.28224182 472.03644165 -18.62283325 472.69512939 C-22.52342121 480.2073999 -26.60348039 487.57389337 -30.98291016 494.81787109 C-32.40575869 496.98589257 -32.40575869 496.98589257 -32.24609375 499.1328125 C-32.86500488 499.12233887 -33.48391602 499.11186523 -34.12158203 499.10107422 C-79.80002169 498.44722448 -126.52129817 501.57336862 -171.24609375 511.1328125 C-172.27250977 511.35018066 -173.29892578 511.56754883 -174.35644531 511.79150391 C-223.18064156 522.34126364 -291.79839332 541.18166292 -321.58984375 585.30078125 C-327.38732797 595.21393234 -329.80407311 604.63952212 -328.24609375 616.1328125 C-325.01045814 627.11616273 -316.51417572 633.94882002 -306.88867188 639.39916992 C-282.89434 652.08798969 -249.79829369 648.89686241 -224.24609375 643.1328125 C-223.29331543 642.91850586 -222.34053711 642.70419922 -221.35888672 642.48339844 C-180.10638284 632.93311363 -141.43234764 614.46658816 -106.24609375 591.1328125 C-105.6320166 590.72579102 -105.01793945 590.31876953 -104.38525391 589.89941406 C-77.80702722 572.15084175 -41.83103105 546.98606493 -27.0703125 517.9140625 C-24.4838489 513.1881784 -21.85639692 509.08013173 -17.24609375 506.1328125 C-9.42518603 503.86867358 -0.98190184 505.06231671 7.015625 505.75048828 C12.32858015 506.20146315 17.64769747 506.45840926 22.97265625 506.72265625 C50.24543753 508.13495323 77.87856406 509.80155455 104.57299805 515.91381836 C109.41509554 517.00542126 113.78541203 517.28947673 118.75390625 517.1328125 C118.42390625 516.1428125 118.09390625 515.1528125 117.75390625 514.1328125 C79.55808433 497.26156381 27.67844179 497.76126875 -13.24609375 498.1328125 C-12.57574097 496.99573853 -12.57574097 496.99573853 -11.8918457 495.83569336 C34.02740763 417.98119184 34.02740763 417.98119184 60.75390625 332.1328125 C61.12322266 330.23595703 61.12322266 330.23595703 61.5 328.30078125 C64.09708974 314.38589721 64.09708974 314.38589721 61.06640625 301.0078125 C58.33497674 297.61198122 55.66089335 295.08630605 51.75390625 293.1328125 C44.58260573 292.36445887 39.67050153 294.03030691 33.75390625 298.1328125 C19.10203774 310.176495 11.30835094 326.38791232 3.3046875 343.171875 C-0.6342847 351.00467358 -6.09125217 357.01053621 -12.24609375 363.1328125 C-13.16390625 364.050625 -14.08171875 364.9684375 -15.02734375 365.9140625 C-51.52796319 400.81025911 -104.55317447 420.17174412 -154.63671875 419.375 C-181.0937792 418.61369997 -204.71356305 408.61027355 -223.2421875 389.4453125 C-230.68308948 380.85854062 -235.83379467 371.58524916 -240.24609375 361.1328125 C-240.80296875 359.9365625 -241.35984375 358.7403125 -241.93359375 357.5078125 C-254.42395926 325.38972976 -252.21466902 282.86738483 -242.83935547 250.25439453 C-242.16333454 247.83685467 -241.54936033 245.40721164 -240.9375 242.97265625 C-236.85820647 226.9940127 -231.18926009 211.9024423 -224.05859375 197.03125 C-223.11493953 195.17053214 -223.11493953 195.17053214 -223.24609375 193.1328125 C-217.71712593 195.7826404 -212.42002713 198.62925977 -207.18359375 201.8203125 C-170.34517822 223.41256618 -123.61271066 231.77969205 -81.39160156 231.52392578 C-78.24630415 231.50781358 -75.10229093 231.52391545 -71.95703125 231.54296875 C-57.52585953 231.55719259 -43.51139494 230.2614546 -29.24609375 228.1328125 C-28.36920898 228.00363937 -27.49232422 227.87446625 -26.58886719 227.74137878 C-16.27055371 226.20926595 -6.23590058 224.19709462 3.75390625 221.1328125 C5.21062744 220.68808594 5.21062744 220.68808594 6.69677734 220.234375 C38.31844395 210.44773235 64.42918197 196.68170802 88.75390625 174.1328125 C89.35847656 173.59398437 89.96304687 173.05515625 90.5859375 172.5 C109.24385553 155.10924736 120.39231637 129.3622473 121.93359375 104.19921875 C122.48079147 81.79451222 117.04539543 60.69716179 102.75390625 43.1328125 C102.27824219 42.49988281 101.80257813 41.86695313 101.3125 41.21484375 C85.98459983 21.96853301 58.03176321 12.05180145 34.44918823 9.32498169 C23.3286013 8.12917114 12.3097734 7.73137022 1.12890625 7.7578125 C0.21359131 7.75868866 -0.70172363 7.75956482 -1.64477539 7.76046753 C-48.64750584 7.90818163 -96.92490467 23.74736947 -136.53417969 49.04003906 Z " fill="#D373DF" transform="translate(717.24609375,258.8671875)"/>
<path d="M0 0 C37.80915786 -0.7182201 77.06874886 7.30500811 105.19140625 34.0703125 C122.29568773 52.04240532 129.20363595 77.53632736 129.05419922 101.87060547 C128.40212408 126.26761479 119.87328667 149.63573606 103.75390625 168.1328125 C103.06683594 168.92816406 102.37976563 169.72351563 101.671875 170.54296875 C99.40473356 173.11186632 97.09427794 175.63050405 94.75390625 178.1328125 C93.98175781 178.95910156 93.20960938 179.78539062 92.4140625 180.63671875 C52.76682394 221.69763518 -10.97589351 238.22301153 -66.43041992 239.39759827 C-71.11934357 239.45855613 -75.80686719 239.46344428 -80.49609375 239.4453125 C-81.48121948 239.44348969 -82.46634521 239.44166687 -83.48132324 239.43978882 C-98.29599596 239.39373486 -112.64457636 238.81547826 -127.24609375 236.1328125 C-128.22739258 235.96652344 -129.20869141 235.80023438 -130.21972656 235.62890625 C-160.32564758 230.50207013 -188.94432802 220.8232 -215.59228516 205.92382812 C-217.24125975 204.98898458 -217.24125975 204.98898458 -219.24609375 205.1328125 C-239.1076835 252.24774855 -252.60180158 308.46807311 -233.24609375 358.1328125 C-229.0007084 368.33709656 -223.77081664 376.96035706 -216.24609375 385.1328125 C-215.70726562 385.76316406 -215.1684375 386.39351562 -214.61328125 387.04296875 C-200.92865546 402.1373173 -178.35391592 410.26922179 -158.4699707 411.27294922 C-108.68793004 412.86565756 -59.85198599 394.87276661 -22.24609375 362.1328125 C-21.39789062 361.44058594 -20.5496875 360.74835938 -19.67578125 360.03515625 C-8.71664526 350.80200039 -2.80509806 339.57120542 3.09375 326.80615234 C10.65597578 310.56909069 21.80142888 294.65992572 38.69140625 287.1953125 C44.30334424 285.39268999 50.50923338 284.84594224 56.05859375 287.046875 C62.87710605 291.03506144 67.26128901 296.60151286 69.75390625 304.1328125 C77.85715109 363.82671618 32.09571383 442.71569082 -0.24609375 490.1328125 C5.79990797 490.90193882 11.81347522 491.32443669 17.90031433 491.62591553 C48.56447093 493.14778665 79.48153772 496.10603874 109.31640625 503.6328125 C110.08452637 503.82222412 110.85264648 504.01163574 111.64404297 504.20678711 C117.49953155 505.77346203 122.18665781 507.87989287 125.75390625 513.0078125 C126.99497489 516.88615201 126.55598751 518.52864997 124.75390625 522.1328125 C118.85296953 526.06677031 110.76818663 524.48380037 104.0625 523.14453125 C102.1037719 522.71071676 100.14678082 522.2690007 98.19140625 521.8203125 C84.78439913 518.95855047 71.39794617 517.36081551 57.75390625 516.1328125 C56.69526367 516.03371582 55.63662109 515.93461914 54.54589844 515.83251953 C31.66843671 513.7460331 8.70932027 513.51633816 -14.24609375 513.1328125 C-14.68828247 514.0458313 -14.68828247 514.0458313 -15.1394043 514.97729492 C-27.12447309 538.3208141 -51.5791226 559.65207571 -71.93359375 575.4453125 C-72.84057007 576.15059082 -72.84057007 576.15059082 -73.76586914 576.87011719 C-75.00545533 577.83357475 -76.24560172 578.79631202 -77.48632812 579.75830078 C-79.07930933 581.00254109 -80.65591272 582.26767987 -82.23046875 583.53515625 C-135.51681027 625.89638807 -210.42744075 661.13059354 -279.95507812 654.88964844 C-284.81527191 654.29822727 -289.50321614 653.34075597 -294.24609375 652.1328125 C-295.30183594 651.86597656 -296.35757813 651.59914063 -297.4453125 651.32421875 C-311.62245545 647.15447082 -324.32842615 639.41443885 -331.68359375 626.3828125 C-336.43889191 617.31276151 -336.54532222 606.65865151 -334.5625 596.69921875 C-329.394187 580.20779678 -317.83535887 567.33386943 -304.24609375 557.1328125 C-303.32570313 556.3903125 -302.4053125 555.6478125 -301.45703125 554.8828125 C-284.12499915 541.54372957 -262.59383618 531.86778351 -242.24609375 524.1328125 C-241.33037598 523.78057617 -240.4146582 523.42833984 -239.47119141 523.06542969 C-195.17624186 506.16119485 -149.8617942 497.85708999 -102.76501465 494.32287598 C-100.11814712 494.12315837 -97.47166148 493.91883134 -94.82519531 493.71386719 C-90.10202191 493.34939555 -85.37812699 492.99591893 -80.65356445 492.64993286 C-78.83781244 492.51640411 -77.02221022 492.38081781 -75.20678711 492.2428894 C-62.19870847 491.26222081 -49.28975142 490.97723688 -36.24609375 491.1328125 C-35.95508789 490.21580566 -35.66408203 489.29879883 -35.36425781 488.35400391 C-34.50110905 485.86745702 -33.67224751 483.83865182 -32.35546875 481.59375 C-31.98292969 480.94591553 -31.61039063 480.29808105 -31.2265625 479.63061523 C-30.82050781 478.93009033 -30.41445313 478.22956543 -29.99609375 477.5078125 C0.55007967 424.48106859 0.55007967 424.48106859 13.75390625 366.1328125 C12.93792969 366.8134375 12.12195313 367.4940625 11.28125 368.1953125 C-26.50063365 399.29502063 -72.18918351 425.42351115 -120.24609375 436.1328125 C-121.01945068 436.308125 -121.79280762 436.4834375 -122.58959961 436.6640625 C-129.04943614 438.05037615 -135.47638901 438.74753151 -142.05859375 439.2578125 C-143.12029785 439.3412793 -144.18200195 439.42474609 -145.27587891 439.51074219 C-152.61801043 440.06227437 -159.88453572 440.55087629 -167.24609375 440.1328125 C-168.20563965 440.07915527 -168.20563965 440.07915527 -169.18457031 440.02441406 C-188.12086857 438.81833649 -205.78742677 433.53911557 -222.24609375 424.1328125 C-223.23867188 423.57851563 -224.23125 423.02421875 -225.25390625 422.453125 C-234.78633953 416.77711772 -242.47862084 408.97668679 -250.24609375 401.1328125 C-250.8803125 400.49601562 -251.51453125 399.85921875 -252.16796875 399.203125 C-282.72955551 366.68246216 -287.43317936 318.56632512 -286.31970215 276.20983887 C-285.22881496 245.42800546 -276.41296175 213.8956363 -263.59619141 186.01757812 C-261.38552489 181.16282578 -261.38552489 181.16282578 -262.24609375 176.1328125 C-263.39880485 174.51427018 -263.39880485 174.51427018 -264.87109375 173.0078125 C-286.39102044 148.77227602 -295.85812162 118.91896854 -294.42626953 86.92041016 C-292.94033971 63.93078048 -281.75615515 42.55391265 -267.24609375 25.1328125 C-266.46878906 24.17890625 -265.69148438 23.225 -264.890625 22.2421875 C-260.72116775 17.33356658 -256.69721715 12.74232199 -250.24609375 11.1328125 C-246.30859375 11.2578125 -246.30859375 11.2578125 -243.24609375 12.1328125 C-241.63101025 15.36297949 -241.73100613 18.63504563 -242.24609375 22.1328125 C-243.67015013 24.63658375 -244.95770646 26.56460494 -246.74609375 28.7578125 C-247.67172486 29.97403149 -248.59219334 31.19419461 -249.5078125 32.41796875 C-249.96978027 33.0330127 -250.43174805 33.64805664 -250.90771484 34.28173828 C-265.71334664 54.75899116 -271.75420426 79.92694421 -268.02734375 104.84375 C-265.0469877 122.24237107 -258.01172166 138.13749621 -247.24609375 152.1328125 C-244.40498319 148.80318519 -242.17898836 145.41243598 -240.05151367 141.61474609 C-227.95701629 120.02725646 -211.91068565 101.66580487 -194.55859375 84.1953125 C-194.07294952 83.70421997 -193.5873053 83.21312744 -193.08694458 82.70715332 C-186.81441513 76.38226553 -180.33818113 70.53325291 -173.24609375 65.1328125 C-172.22 64.34132813 -171.19390625 63.54984375 -170.13671875 62.734375 C-167.1815083 60.52233878 -164.21787533 58.3225463 -161.24609375 56.1328125 C-160.69937012 55.72772461 -160.15264648 55.32263672 -159.58935547 54.90527344 C-138.92949997 39.64454275 -116.20923208 27.3722081 -92.24609375 18.1328125 C-91.45944336 17.82891602 -90.67279297 17.52501953 -89.86230469 17.21191406 C-60.77633329 6.14672722 -30.95202017 1.26638831 0 0 Z M-112.24609375 31.1328125 C-113.09429688 31.55143555 -113.9425 31.97005859 -114.81640625 32.40136719 C-144.9289777 47.37992872 -170.90247804 67.08290058 -195.24609375 90.1328125 C-195.99761719 90.84179688 -196.74914062 91.55078125 -197.5234375 92.28125 C-202.02351595 96.64766276 -205.99002868 101.34467819 -209.90625 106.23828125 C-211.44501352 108.14182678 -213.01491232 110.02069028 -214.6171875 111.87109375 C-225.16953284 124.07804684 -233.69439304 137.6355333 -241.40625 151.77734375 C-242.9576139 154.60668895 -244.56319944 157.38041526 -246.24609375 160.1328125 C-265.47453226 134.56056538 -275.7509982 107.1821351 -271.78125 74.71875 C-268.87204147 55.58190217 -260.09501972 38.67325096 -248.03125 23.75390625 C-246.21691571 21.08997122 -245.50973145 19.32451145 -245.24609375 16.1328125 C-245.74109375 15.6378125 -245.74109375 15.6378125 -246.24609375 15.1328125 C-252.06667941 15.35285903 -255.11708511 17.05611026 -258.99609375 21.1953125 C-259.5055957 21.72479492 -260.01509766 22.25427734 -260.54003906 22.79980469 C-283.15153836 47.05933173 -291.26127542 75.04948111 -290.4296875 107.63525391 C-290.05289232 114.8134025 -288.50844703 121.33831071 -286.24609375 128.1328125 C-285.89546875 129.23753906 -285.54484375 130.34226562 -285.18359375 131.48046875 C-279.60927732 147.40985216 -270.13846924 161.92405288 -258.49609375 174.0703125 C-257.75359375 175.0809375 -257.01109375 176.0915625 -256.24609375 177.1328125 C-257.25417296 181.39053838 -259.16265149 185.34500881 -260.91088867 189.34716797 C-273.31354879 217.8238414 -282.28410842 249.34446729 -282.44921875 280.59375 C-282.45776886 281.89972641 -282.45776886 281.89972641 -282.4664917 283.23208618 C-282.47586987 285.06568211 -282.48244677 286.89929435 -282.48632812 288.73291016 C-282.49594938 291.46679112 -282.52700737 294.19989104 -282.55859375 296.93359375 C-282.6592387 313.4146455 -280.90339308 329.44898499 -276.05859375 345.2578125 C-275.75888672 346.25643311 -275.45917969 347.25505371 -275.15039062 348.28393555 C-265.36732409 379.84441077 -245.71678205 407.20539557 -216.24609375 423.1328125 C-182.95798519 439.98309151 -143.52632184 439.80554153 -108.24609375 429.1328125 C-107.1183252 428.80120117 -107.1183252 428.80120117 -105.96777344 428.46289062 C-62.39482439 415.47022945 -21.16406367 391.17242227 13.08984375 361.4375 C15.5965021 359.26898325 18.15222919 357.18577221 20.75390625 355.1328125 C13.92772505 385.31249484 4.57035467 414.93758926 -8.24609375 443.1328125 C-8.7045166 444.14311523 -9.16293945 445.15341797 -9.63525391 446.19433594 C-15.54895628 459.10241726 -21.98119677 471.61489526 -29.14575195 483.87524414 C-29.66741943 484.77106201 -30.18908691 485.66687988 -30.7265625 486.58984375 C-31.42108521 487.7651062 -31.42108521 487.7651062 -32.12963867 488.96411133 C-33.19467777 491.03293755 -33.7923639 492.85963566 -34.24609375 495.1328125 C-34.96635742 495.11710205 -35.68662109 495.1013916 -36.42871094 495.08520508 C-55.7038025 494.72708367 -74.5724814 495.77500024 -93.75532532 497.56202698 C-99.59992843 498.09774178 -105.44640932 498.47082334 -111.30615234 498.80395508 C-175.07648795 502.51566777 -254.87122515 519.2262673 -304.24609375 562.1328125 C-305.14199219 562.89207031 -306.03789062 563.65132812 -306.9609375 564.43359375 C-320.23902295 575.99451326 -330.02931042 588.1663114 -332.24609375 606.1328125 C-332.65084809 617.50272987 -328.84102012 625.70840612 -321.24609375 634.1328125 C-302.01729107 651.26154117 -276.52048959 652.38485346 -252.1796875 651.36035156 C-221.6168971 649.59244437 -190.71849105 639.79916897 -163.06835938 626.97412109 C-161.26546248 626.14175471 -159.45109267 625.33438669 -157.63671875 624.52734375 C-121.93133541 608.39862445 -88.63455918 585.77456666 -59.72265625 559.38671875 C-58.0435717 557.8585929 -56.35028552 556.34595392 -54.64453125 554.84765625 C-50.17724471 550.9134749 -46.02994967 546.95023695 -42.19921875 542.39453125 C-39.27060475 539.00319624 -36.1669871 535.7645784 -33.02246094 532.57250977 C-30.00394172 529.40979667 -27.76201634 526.4221437 -25.77734375 522.515625 C-23.02391313 517.41925226 -20.36372297 513.09119585 -15.24609375 510.1328125 C-4.95347931 507.72537721 6.00410297 509.13175121 16.43414307 509.96386719 C20.19742237 510.23794189 23.96454596 510.38654371 27.734375 510.5390625 C54.8223568 511.69867469 82.78434452 513.18002513 109.046875 520.27734375 C112.3421656 521.03779543 114.46653615 521.27146408 117.75390625 520.7578125 C118.51703125 520.64695312 119.28015625 520.53609375 120.06640625 520.421875 C120.62328125 520.32648437 121.18015625 520.23109375 121.75390625 520.1328125 C122.70411041 517.8929775 122.70411041 517.8929775 122.75390625 515.1328125 C116.71671254 506.68074131 104.09969691 506.0053889 94.62890625 504.1953125 C93.95739532 504.0665271 93.2858844 503.9377417 92.59402466 503.80505371 C59.62924355 497.52549454 26.31217372 494.51610699 -7.24609375 495.1328125 C-6.79395508 494.36952637 -6.34181641 493.60624023 -5.87597656 492.81982422 C3.63206299 476.74579182 12.97799128 460.62199295 21.75390625 444.1328125 C22.24165527 443.2243457 22.7294043 442.31587891 23.23193359 441.37988281 C44.48019653 401.75605027 61.78962551 360.17457922 66.75390625 315.1328125 C66.83898437 314.38 66.9240625 313.6271875 67.01171875 312.8515625 C67.35240457 307.12804074 65.57585749 302.03237422 62.75390625 297.1328125 C59.55489148 293.60605902 56.08874745 290.35192837 51.21484375 289.89453125 C39.790964 289.61977971 34.39975021 292.99339408 26.1953125 300.734375 C25.38964844 301.52585937 24.58398438 302.31734375 23.75390625 303.1328125 C23.06167969 303.80054688 22.36945313 304.46828125 21.65625 305.15625 C13.89355178 313.21217142 9.0480347 323.47799246 4.125 333.4140625 C-1.24646532 344.1723952 -6.41656846 352.88673602 -15.24609375 361.1328125 C-16.01050781 361.89078125 -16.77492188 362.64875 -17.5625 363.4296875 C-28.91527597 374.26380873 -42.48425008 382.80390037 -56.31054688 390.10791016 C-58.16906336 391.0920237 -60.0118995 392.10152964 -61.85546875 393.11328125 C-79.63295838 402.64397119 -99.16120746 409.77267464 -119.11767578 412.80664062 C-121.06068702 413.10439963 -122.99589744 413.45197076 -124.9296875 413.8046875 C-151.56243729 418.19894276 -181.85888402 415.66029353 -204.6640625 400.03515625 C-205.51613281 399.40738281 -206.36820312 398.77960938 -207.24609375 398.1328125 C-208.63248047 397.11380859 -208.63248047 397.11380859 -210.046875 396.07421875 C-232.20483341 378.88111409 -241.28608142 353.08148952 -244.80859375 326.09765625 C-249.22966483 284.03483426 -240.07179903 241.16123487 -222.49609375 203.01953125 C-221.11363925 200.35121447 -221.11363925 200.35121447 -221.24609375 198.1328125 C-219.60640625 199.14988281 -219.60640625 199.14988281 -217.93359375 200.1875 C-182.19578078 221.87914694 -137.80626114 235.25411037 -95.81640625 235.30078125 C-94.74599091 235.30410965 -93.67557556 235.30743805 -92.57272339 235.31086731 C-90.31541367 235.3159038 -88.05809658 235.31827666 -85.80078125 235.31811523 C-82.41523324 235.32028422 -79.03002105 235.33842721 -75.64453125 235.35742188 C-57.67418227 235.40523637 -40.19296707 234.15423936 -22.49609375 230.9453125 C-20.73084351 230.62602783 -20.73084351 230.62602783 -18.92993164 230.30029297 C14.91121492 223.90092556 50.06062878 211.5221996 76.75390625 189.1328125 C77.81509759 188.25650245 78.87629608 187.38020107 79.9375 186.50390625 C98.39755501 171.16887484 112.81674847 153.06886402 120.75390625 130.1328125 C121.14578125 129.01648438 121.53765625 127.90015625 121.94140625 126.75 C128.96471359 103.3877485 125.98683359 75.4719004 114.72460938 53.86669922 C112.15896295 49.28389718 109.07592141 45.18567099 105.75390625 41.1328125 C105.2125 40.42898438 104.67109375 39.72515625 104.11328125 39 C86.50412607 17.20225936 54.79937829 7.96042353 28.06640625 4.8203125 C-20.41021853 0.06801215 -68.6939046 9.44567256 -112.24609375 31.1328125 Z " fill="#FEFCFE" transform="translate(717.24609375,258.8671875)"/>
<path d="M0 0 C0.66467285 0.18723633 1.3293457 0.37447266 2.01416016 0.56738281 C15.74064881 4.49893707 27.16242535 10.74608503 38 20 C38.82886719 20.64066406 39.65773438 21.28132813 40.51171875 21.94140625 C52.58888006 31.9330295 61.32293484 48.46679458 63 64 C64.93838589 91.49084029 57.63544138 113.63936725 39.78125 134.60546875 C37.56777927 137.11900506 35.30280036 139.56818027 33 142 C32.23042969 142.82242188 31.46085937 143.64484375 30.66796875 144.4921875 C20.68157164 154.84964621 9.40477366 162.77213302 -3 170 C-3.60150879 170.3594873 -4.20301758 170.71897461 -4.82275391 171.08935547 C-29.30657028 185.71366144 -57.76107896 196.02691015 -85.90478516 200.625 C-88.09861401 201.01764986 -90.25000035 201.51545083 -92.41796875 202.03125 C-101.14314447 203.99591086 -109.95665167 204.16688551 -118.8671875 204.203125 C-119.98199493 204.20882507 -121.09680237 204.21452515 -122.24539185 204.22039795 C-124.5968533 204.22979698 -126.94832763 204.23636151 -129.29980469 204.24023438 C-132.83032354 204.24987797 -136.36024381 204.28092588 -139.890625 204.3125 C-153.53767701 204.37698352 -166.60153311 203.65008306 -180 201 C-181.14049805 200.77554199 -182.28099609 200.55108398 -183.45605469 200.31982422 C-186.30258751 199.71051283 -189.11842175 199.0375653 -191.9375 198.3125 C-192.93201172 198.05903809 -193.92652344 197.80557617 -194.95117188 197.54443359 C-217.21581278 191.65313893 -237.17658563 182.13488577 -256 169 C-256.99 168.34 -257.98 167.68 -259 167 C-258.43109349 163.51616116 -257.57305033 160.83179898 -255.83984375 157.76171875 C-255.15643921 156.54983887 -255.15643921 156.54983887 -254.45922852 155.31347656 C-253.7059729 154.01361816 -253.7059729 154.01361816 -252.9375 152.6875 C-252.41019287 151.77323242 -251.88288574 150.85896484 -251.33959961 149.91699219 C-241.51703564 133.13341096 -230.5301578 117.10054566 -218.44824219 101.8671875 C-216.32412284 99.12860611 -214.31183132 96.30906791 -212.30126953 93.48632812 C-211.87185059 92.99583984 -211.44243164 92.50535156 -211 92 C-210.34 92 -209.68 92 -209 92 C-208.72913574 91.41186523 -208.45827148 90.82373047 -208.17919922 90.21777344 C-203.89300652 82.15653648 -195.91767698 75.76189518 -189.49267578 69.36230469 C-187.86764019 67.74266462 -186.24806535 66.11770007 -184.62890625 64.4921875 C-183.58365408 63.44759562 -182.53809201 62.40331372 -181.4921875 61.359375 C-181.0149826 60.88014587 -180.53777771 60.40091675 -180.04611206 59.90716553 C-172.08409165 52 -172.08409165 52 -169 52 C-169 51.34 -169 50.68 -169 50 C-165.53846154 47 -165.53846154 47 -163 47 C-163 46.34 -163 45.68 -163 45 C-161.58569336 43.72241211 -161.58569336 43.72241211 -159.58984375 42.27734375 C-158.85515869 41.74343018 -158.12047363 41.2095166 -157.36352539 40.65942383 C-156.56293701 40.09118896 -155.76234863 39.5229541 -154.9375 38.9375 C-153.70664673 38.05904419 -153.70664673 38.05904419 -152.45092773 37.1628418 C-145.18362556 32.03202935 -137.766828 27.33223168 -130 23 C-129.28263672 22.5968457 -128.56527344 22.19369141 -127.82617188 21.77832031 C-110.00739091 11.84591498 -91.87750434 4.60127415 -72 0 C-71.27619141 -0.1767627 -70.55238281 -0.35352539 -69.80664062 -0.53564453 C-47.40505339 -5.84102483 -22.13153592 -6.46491852 0 0 Z M-87.0234375 12.33056641 C-88.90648495 12.96832778 -90.79685124 13.58435734 -92.6875 14.19921875 C-121.35351241 24.14274181 -147.55604586 41.50245161 -169.7890625 61.97265625 C-171.73982911 63.7614334 -173.72980395 65.47843119 -175.75 67.1875 C-179.82113822 70.73712878 -183.66078882 74.51602141 -187.5 78.3125 C-188.45471191 79.24775513 -188.45471191 79.24775513 -189.42871094 80.2019043 C-190.31478027 81.08616089 -190.31478027 81.08616089 -191.21875 81.98828125 C-191.75435547 82.51977783 -192.28996094 83.05127441 -192.84179688 83.59887695 C-194.21237595 84.95394431 -194.21237595 84.95394431 -194 87 C-194.66 87 -195.32 87 -196 87 C-197.37491299 88.50787161 -198.67364462 90.08539761 -199.9375 91.6875 C-202.86515389 95.3575733 -205.81869801 98.96782489 -208.90307617 102.50878906 C-222.15633991 117.79676631 -233.16178413 134.7790126 -243.5 152.125 C-243.93401123 152.84824463 -244.36802246 153.57148926 -244.81518555 154.31665039 C-245.21648682 154.99848389 -245.61778809 155.68031738 -246.03125 156.3828125 C-246.38767578 156.98496582 -246.74410156 157.58711914 -247.11132812 158.20751953 C-248.05754567 160.11607152 -248.55830686 161.92141038 -249 164 C-227.68770317 180.39407449 -200.15809492 189.14042583 -174 194 C-173.18305664 194.15243164 -172.36611328 194.30486328 -171.52441406 194.46191406 C-137.19142864 200.55473593 -101.62832205 197.38027792 -68 189 C-66.66243652 188.66959717 -66.66243652 188.66959717 -65.29785156 188.33251953 C-42.04989982 182.46728876 -18.80369555 172.62446026 1 159 C1.87785156 158.39671875 2.75570312 157.7934375 3.66015625 157.171875 C8.87710693 153.4787243 13.85952679 149.54792369 18.75 145.4375 C19.26868652 145.00276367 19.78737305 144.56802734 20.32177734 144.12011719 C38.53956781 128.58090309 53.79061193 107.18265073 56.21875 82.80371094 C57.5248088 64.00462703 52.77973593 47.09604614 40.44140625 32.6640625 C22.83109026 13.44768569 -0.87354816 4.07097896 -26.69921875 2.875 C-47.25812692 2.45381878 -67.58667768 5.74064181 -87.0234375 12.33056641 Z " fill="#D973DE" transform="translate(758,277)"/>
<path d="M0 0 C-5.42286922 11.95363645 -15.37549908 22.27761777 -24 32 C-24.81855469 32.93070313 -25.63710938 33.86140625 -26.48046875 34.8203125 C-43.52274821 54.00387664 -63.51994062 70.05147087 -85 84 C-85.83015625 84.54011719 -86.6603125 85.08023438 -87.515625 85.63671875 C-127.09160997 111.19115076 -174.97183748 134.38195765 -223.04833984 134.37060547 C-225.1306961 134.37501205 -227.21097962 134.41159538 -229.29296875 134.44921875 C-241.17621451 134.55065476 -250.42532784 132.54082821 -259.12109375 124.140625 C-263.7344682 118.88463914 -266.0885139 113.0684668 -266 106 C-264.92711084 91.23065352 -257.11498017 81.00068661 -247 71 C-245.97132813 69.95585938 -245.97132813 69.95585938 -244.921875 68.890625 C-231.56594152 56.1656805 -214.25259583 47.37678996 -198 39 C-197.08621582 38.52675293 -196.17243164 38.05350586 -195.23095703 37.56591797 C-150.30002081 14.53970796 -99.80193982 3.22248083 -49.4921875 1.46484375 C-48.32672394 1.42186661 -47.16126038 1.37888947 -45.96047974 1.33460999 C-43.51163048 1.24493841 -41.06272534 1.15678135 -38.61376953 1.07006836 C-34.87909339 0.93764514 -31.14462417 0.80026849 -27.41015625 0.66210938 C-25.02084388 0.5752302 -22.63152128 0.48863208 -20.2421875 0.40234375 C-19.13366425 0.36173325 -18.02514099 0.32112274 -16.88302612 0.27928162 C-11.25097919 0.08148605 -5.63549488 -0.043808 0 0 Z M-58.0625 9.625 C-59.04946869 9.7123642 -60.03643738 9.79972839 -61.05331421 9.88973999 C-88.92197468 12.39078437 -116.30024237 16.36605905 -143 25 C-143.87462891 25.27956543 -144.74925781 25.55913086 -145.65039062 25.84716797 C-158.77370155 30.09513313 -171.41611729 35.37096185 -184 41 C-184.73814941 41.32581055 -185.47629883 41.65162109 -186.23681641 41.98730469 C-207.9546947 51.61199013 -229.71888957 63.38642018 -246 81 C-246.86625 81.78375 -247.7325 82.5675 -248.625 83.375 C-254.75369138 90.14881678 -258.82396211 97.72415726 -259 107 C-258.0954269 112.45280049 -256.04995381 117.16896261 -252 121 C-236.38469002 131.14995149 -214.91054714 127.66412421 -197.734375 124.26171875 C-188.67281749 122.33284906 -179.82261616 119.81384634 -171 117 C-170.18499023 116.74379883 -169.36998047 116.48759766 -168.53027344 116.22363281 C-137.45304333 106.32808651 -107.53777675 90.86040827 -81 72 C-80.15115234 71.39978027 -79.30230469 70.79956055 -78.42773438 70.18115234 C-68.73650911 63.29227568 -59.62499182 56.19374223 -51 48 C-49.69341643 46.868134 -48.38122338 45.74269848 -47.0625 44.625 C-37.79649751 36.53623553 -29.56634383 27.68896318 -22 18 C-21.30390625 17.12472656 -20.6078125 16.24945312 -19.890625 15.34765625 C-16.69850018 11.99672586 -16.69850018 11.99672586 -15 8 C-29.44886336 7.78380753 -43.67236054 8.32594003 -58.0625 9.625 Z " fill="#E473E2" transform="translate(680,765)"/>
<path d="M0 0 C1.02450256 -0.00564972 1.02450256 -0.00564972 2.06970215 -0.01141357 C25.07342741 -0.07583232 50.00352671 6.41683329 67.375 22.3125 C68.34050781 23.17488281 69.30601562 24.03726562 70.30078125 24.92578125 C83.49302763 37.12468535 91.36169748 52.62791927 92.61328125 70.765625 C92.91843058 86.37642235 89.84491268 100.49596978 82.375 114.3125 C81.91222656 115.18132812 81.44945312 116.05015625 80.97265625 116.9453125 C64.73273734 145.64633263 35.56242149 164.73122553 6.375 178.3125 C4.70630859 179.09367187 4.70630859 179.09367187 3.00390625 179.890625 C-24.56030324 192.22796258 -54.48521863 198.86862744 -84.5625 200.5625 C-85.34102325 200.6067511 -86.11954651 200.6510022 -86.92166138 200.69659424 C-134.55649395 203.27931151 -181.81870093 193.18175187 -221.625 166.3125 C-221.03369005 162.09374949 -219.57956424 159.13097812 -217.4140625 155.48046875 C-216.75196777 154.36019287 -216.08987305 153.23991699 -215.40771484 152.08569336 C-214.68924879 150.88999788 -213.96999395 149.69477607 -213.25 148.5 C-212.88674622 147.89302277 -212.52349243 147.28604553 -212.14923096 146.66067505 C-192.95805322 114.61175718 -169.12555982 83.67357951 -140.625 59.3125 C-139.67753906 58.4875 -138.73007812 57.6625 -137.75390625 56.8125 C-98.93694368 23.2168161 -51.93108216 0.15920652 0 0 Z M-54.6484375 12.64306641 C-56.53148495 13.28082778 -58.42185124 13.89685734 -60.3125 14.51171875 C-88.97851241 24.45524181 -115.18104586 41.81495161 -137.4140625 62.28515625 C-139.36482911 64.0739334 -141.35480395 65.79093119 -143.375 67.5 C-147.44613822 71.04962878 -151.28578882 74.82852141 -155.125 78.625 C-156.07971191 79.56025513 -156.07971191 79.56025513 -157.05371094 80.5144043 C-157.93978027 81.39866089 -157.93978027 81.39866089 -158.84375 82.30078125 C-159.37935547 82.83227783 -159.91496094 83.36377441 -160.46679688 83.91137695 C-161.83737595 85.26644431 -161.83737595 85.26644431 -161.625 87.3125 C-162.285 87.3125 -162.945 87.3125 -163.625 87.3125 C-164.99991299 88.82037161 -166.29864462 90.39789761 -167.5625 92 C-170.49015389 95.6700733 -173.44369801 99.28032489 -176.52807617 102.82128906 C-189.78133991 118.10926631 -200.78678413 135.0915126 -211.125 152.4375 C-211.55901123 153.16074463 -211.99302246 153.88398926 -212.44018555 154.62915039 C-212.84148682 155.31098389 -213.24278809 155.99281738 -213.65625 156.6953125 C-214.01267578 157.29746582 -214.36910156 157.89961914 -214.73632812 158.52001953 C-215.68254567 160.42857152 -216.18330686 162.23391038 -216.625 164.3125 C-195.31270317 180.70657449 -167.78309492 189.45292583 -141.625 194.3125 C-140.80805664 194.46493164 -139.99111328 194.61736328 -139.14941406 194.77441406 C-104.81642864 200.86723593 -69.25332205 197.69277792 -35.625 189.3125 C-34.28743652 188.98209717 -34.28743652 188.98209717 -32.92285156 188.64501953 C-9.67489982 182.77978876 13.57130445 172.93696026 33.375 159.3125 C34.25285156 158.70921875 35.13070312 158.1059375 36.03515625 157.484375 C41.25210693 153.7912243 46.23452679 149.86042369 51.125 145.75 C51.64368652 145.31526367 52.16237305 144.88052734 52.69677734 144.43261719 C70.91456781 128.89340309 86.16561193 107.49515073 88.59375 83.11621094 C89.8998088 64.31712703 85.15473593 47.40854614 72.81640625 32.9765625 C55.20609026 13.76018569 31.50145184 4.38347896 5.67578125 3.1875 C-14.88312692 2.76631878 -35.21167768 6.05314181 -54.6484375 12.64306641 Z " fill="#FEFBFE" transform="translate(725.625,276.6875)"/>
<path d="M0 0 C-14.73830994 22.53822004 -34.68692869 43.77485833 -56.375 59.78515625 C-57.99332745 60.99501163 -59.57735096 62.23923733 -61.15625 63.5 C-73.89350784 73.63056321 -87.71401645 82.23097763 -102 90 C-102.77327637 90.4228125 -103.54655273 90.845625 -104.34326172 91.28125 C-141.99696697 111.76277096 -195.72432964 136.4754775 -239.68359375 124.25390625 C-246.30221482 121.74262507 -251.11143317 116.93504059 -254.16796875 110.56640625 C-256.92791192 102.0533421 -254.63868392 93.86057153 -251 86 C-230.33077748 48.48918876 -172.36136798 27.56835003 -134 16 C-118.16645009 11.48453968 -102.33831218 7.97379154 -86 6 C-84.09276734 5.75751688 -82.18553873 5.51500135 -80.27838135 5.27192688 C-53.55135004 1.88317988 -26.97423056 -0.48676429 0 0 Z M-51.0625 5.625 C-52.04946869 5.7123642 -53.03643738 5.79972839 -54.05331421 5.88973999 C-81.92197468 8.39078437 -109.30024237 12.36605905 -136 21 C-136.87462891 21.27956543 -137.74925781 21.55913086 -138.65039062 21.84716797 C-151.77370155 26.09513313 -164.41611729 31.37096185 -177 37 C-177.73814941 37.32581055 -178.47629883 37.65162109 -179.23681641 37.98730469 C-200.9546947 47.61199013 -222.71888957 59.38642018 -239 77 C-239.86625 77.78375 -240.7325 78.5675 -241.625 79.375 C-247.75369138 86.14881678 -251.82396211 93.72415726 -252 103 C-251.0954269 108.45280049 -249.04995381 113.16896261 -245 117 C-229.38469002 127.14995149 -207.91054714 123.66412421 -190.734375 120.26171875 C-181.67281749 118.33284906 -172.82261616 115.81384634 -164 113 C-163.18499023 112.74379883 -162.36998047 112.48759766 -161.53027344 112.22363281 C-130.45304333 102.32808651 -100.53777675 86.86040827 -74 68 C-73.15115234 67.39978027 -72.30230469 66.79956055 -71.42773438 66.18115234 C-61.73650911 59.29227568 -52.62499182 52.19374223 -44 44 C-42.69341643 42.868134 -41.38122338 41.74269848 -40.0625 40.625 C-30.79649751 32.53623553 -22.56634383 23.68896318 -15 14 C-14.30390625 13.12472656 -13.6078125 12.24945312 -12.890625 11.34765625 C-9.69850018 7.99672586 -9.69850018 7.99672586 -8 4 C-22.44886336 3.78380753 -36.67236054 4.32594003 -51.0625 5.625 Z " fill="#FEFCFE" transform="translate(673,769)"/>
<path d="M0 0 C0 3.80345877 -1.13786331 4.77701015 -3.5 7.6875 C-4.1496875 8.49574219 -4.799375 9.30398438 -5.46875 10.13671875 C-5.9740625 10.75160156 -6.479375 11.36648438 -7 12 C-7.66 11.67 -8.32 11.34 -9 11 C-7.59155282 7.78475695 -5.89655214 5.67816132 -3.375 3.25 C-2.74335938 2.63640625 -2.11171875 2.0228125 -1.4609375 1.390625 C-0.73777344 0.70226562 -0.73777344 0.70226562 0 0 Z " fill="#B333D9" transform="translate(466,278)"/>
</svg>
